<svg width="24" height="24" viewBox="0 0 24 24" fill="none" xmlns="http://www.w3.org/2000/svg">
<g clip-path="url(#clip0_686_8)">
<path d="M8.80902 14.92L14.919 3.883C15.003 3.731 15.087 3.581 15.163 3.424C15.232 3.282 15.29 3.139 15.328 2.984C15.408 2.658 15.386 2.318 15.262 2.007C15.1409 1.70102 14.9232 1.44295 14.642 1.272C14.3657 1.10448 14.0404 1.03639 13.72 1.079C13.4 1.122 13.107 1.273 12.876 1.509C12.766 1.619 12.676 1.744 12.593 1.877C12.501 2.023 12.418 2.175 12.334 2.327L11.948 3.024L11.561 2.326C11.477 2.175 11.394 2.023 11.302 1.877C11.2212 1.74421 11.1263 1.6205 11.019 1.508C10.7937 1.27453 10.4965 1.12346 10.175 1.079C9.855 1.03663 9.5301 1.10471 9.25402 1.272C8.97288 1.44301 8.7552 1.70106 8.63402 2.007C8.50952 2.31755 8.48642 2.65953 8.56802 2.984C8.60602 3.139 8.66402 3.282 8.73202 3.424C8.80802 3.581 8.89202 3.731 8.97602 3.883L10.224 6.137L5.36202 14.919H2.03002C1.86202 14.919 1.69402 14.919 1.52702 14.929C1.37502 14.938 1.22702 14.957 1.07902 15C0.769021 15.09 0.497021 15.28 0.301021 15.548C0.10522 15.8178 -0.000308456 16.1425 -0.000488052 16.4758C-0.000667648 16.8092 0.104511 17.134 0.300021 17.404C0.497021 17.672 0.768021 17.861 1.07902 17.952C1.22702 17.995 1.37502 18.014 1.52702 18.023C1.69402 18.033 1.86202 18.033 2.03002 18.033H15.127C15.167 17.9456 15.2005 17.8554 15.227 17.763C15.642 16.347 14.611 14.919 13.192 14.919L8.80902 14.92ZM3.11302 18.542L2.32102 20.042C2.23902 20.198 2.15602 20.352 2.08202 20.513C2.01348 20.6578 1.95987 20.8093 1.92202 20.965C1.84178 21.2981 1.86409 21.6478 1.98602 21.968C2.10702 22.286 2.32002 22.551 2.59302 22.723C2.86502 22.895 3.18202 22.965 3.49402 22.92C3.80802 22.876 4.09402 22.722 4.32002 22.48C4.42802 22.365 4.51602 22.238 4.59802 22.102C4.68802 21.952 4.76902 21.796 4.85102 21.64L6.00002 19.464C5.91002 19.314 5.05302 17.994 3.11302 18.542ZM23.699 15.536C23.5061 15.2749 23.2322 15.0851 22.92 14.996C22.7738 14.9557 22.6235 14.9319 22.472 14.925C22.304 14.915 22.137 14.915 21.969 14.915H18.648L14.258 7.1C13.682 7.70471 13.3063 8.47218 13.182 9.298C13.0213 10.331 13.2136 11.3879 13.728 12.298L19.002 21.691C19.086 21.841 19.169 21.991 19.261 22.135C19.345 22.265 19.435 22.388 19.544 22.499C19.775 22.731 20.068 22.879 20.389 22.922C20.709 22.964 21.032 22.898 21.311 22.732C21.5916 22.5642 21.8097 22.3092 21.932 22.006C22.057 21.699 22.078 21.364 21.998 21.042C21.9587 20.8919 21.9034 20.7464 21.833 20.608C21.758 20.453 21.673 20.305 21.589 20.155L20.373 17.989H21.969C22.137 17.989 22.304 17.989 22.472 17.98C22.624 17.971 22.772 17.952 22.92 17.91C23.2327 17.8209 23.507 17.6306 23.7 17.369C23.8955 17.1037 24.0007 16.7826 24 16.453C24.0007 16.1234 23.8955 15.8023 23.7 15.537L23.699 15.536Z" fill="black"/>
</g>
<defs>
<clipPath id="clip0_686_8">
<rect width="24" height="24" fill="white"/>
</clipPath>
</defs>
</svg>
